<svg width="14" height="24" viewBox="0 0 14 24" fill="none" xmlns="http://www.w3.org/2000/svg">
<path d="M5.20419 2.56466C5.82277 1.33921 6.97313 0.378249 8.15833 0.0966335C8.62348 -0.0138481 11.0552 -0.0345915 12.3942 0.0604452L13.4262 0.133611V1.90898V3.68424L12.0451 3.72821C10.4825 3.77781 9.93629 3.96958 9.46167 4.63495C9.21444 4.98161 9.1964 5.12129 9.16315 6.94863L9.12764 8.89334H11.1642H13.2007L13.1932 9.25973C13.1891 9.4613 13.0496 10.4296 12.8832 11.4115L12.5806 13.1969L10.8896 13.2153L9.19855 13.2337L9.16923 18.6168L9.14003 24H6.83108H4.52213L4.49293 18.6168L4.46362 13.2337L4.20996 13.2196C4.0704 13.2118 3.19534 13.1992 2.26526 13.1914L0.574219 13.1773V11.0353V8.89334H2.5471H4.51999L4.52168 6.77953C4.52349 4.4115 4.64231 3.6777 5.20419 2.56466Z" fill="white"/>
</svg>
