<svg width="26" height="24" viewBox="0 0 26 24" fill="none" xmlns="http://www.w3.org/2000/svg">
<path fill-rule="evenodd" clip-rule="evenodd" d="M1.19296 4.91893C1.79946 2.56673 3.87778 0.563439 6.15992 0.1314C6.50212 0.0666932 9.5539 0.00833296 12.9417 0.00186232C19.7661 -0.011079 20.1689 0.0240121 21.5613 0.753079C23.0736 1.54499 24.3895 3.19587 24.8311 4.85509C25.092 5.83515 25.0919 18.1525 24.8311 19.1326C24.2051 21.485 22.1362 23.4352 19.7998 23.8755C19.4021 23.9505 16.6185 24.0011 12.9558 24C7.8892 23.9985 6.63913 23.9645 5.98484 23.8102C3.70855 23.2737 1.7844 21.3775 1.18636 19.0814C0.898919 17.9777 0.904391 6.0381 1.19296 4.91893ZM20.4233 2.50712C21.194 2.88565 22.1143 3.78843 22.4999 4.54425C22.9943 5.51323 23.0396 6.23595 22.9982 12.4916L22.9587 18.4645L22.5977 19.2462C22.132 20.2547 21.0702 21.2627 20.0852 21.6312C19.3956 21.8892 19.2423 21.894 12.8325 21.8594C6.42223 21.825 6.27216 21.8186 5.7025 21.5553C4.98002 21.2215 4.06281 20.3882 3.6589 19.699C3.05825 18.674 2.9913 17.9153 2.98993 12.1183C2.98919 9.04048 3.04307 6.43256 3.11661 5.97899C3.40791 4.18401 4.48029 2.89598 6.20273 2.27244C6.56235 2.14228 8.02733 2.11366 13.1905 2.13556L19.7234 2.16343L20.4233 2.50712ZM18.8825 6.77352C17.9428 6.32754 17.8397 4.98675 18.7044 4.45951C19.4567 4.00084 20.3408 4.24636 20.7057 5.01524C20.9578 5.54646 20.8707 6.01458 20.4322 6.48607C20.0197 6.92943 19.4384 7.03732 18.8825 6.77352ZM6.57019 11.1372C6.94561 8.52395 8.98424 6.24591 11.4917 5.63767C13.6639 5.11081 16.0024 5.78674 17.6336 7.41299C20.2975 10.0691 20.1998 14.328 17.4176 16.8272C14.7915 19.186 10.8664 19.0828 8.39976 16.5901C6.99041 15.1658 6.29108 13.0814 6.57019 11.1372ZM17.2659 11.3296C17.0636 9.99042 16.1185 8.74146 14.8305 8.11132C14.1179 7.76278 12.7463 7.61781 11.9938 7.81155C10.7848 8.12289 9.55714 9.1567 9.05429 10.2869C8.89315 10.6491 8.77269 11.2314 8.73984 11.8072C8.61864 13.9291 9.94537 15.693 12.0706 16.2357C12.7575 16.4112 13.0013 16.4199 13.6873 16.2937C16.099 15.8502 17.6284 13.7286 17.2659 11.3296Z" fill="white"/>
</svg>
