<svg width="24" height="24" viewBox="0 0 24 24" fill="none" xmlns="http://www.w3.org/2000/svg">
<path d="M0.586133 4.45882C-0.377313 2.93962 0.107539 1.10098 1.69238 0.263256C2.26603 -0.0399454 3.11887 -0.0858809 3.80173 0.149604C5.55378 0.753926 6.28689 2.96002 5.23297 4.45632C4.08857 6.08098 1.61577 6.08237 0.586133 4.45882Z" fill="white"/>
<path d="M13.0932 9.79115C13.5561 9.20251 14.7262 8.42945 15.5556 8.16427C16.5722 7.83914 19.1075 7.80445 20.109 8.10182C21.6691 8.56516 23.1366 10.0313 23.6335 11.6231C23.8892 12.4429 23.9087 12.9099 23.9087 18.2526V24L21.5844 23.962L19.26 23.924L19.1907 19.0608C19.1271 14.6066 19.0994 14.1631 18.8601 13.7877C18.1413 12.6598 17.319 12.1696 16.1509 12.1725C14.8907 12.1756 13.9671 12.6816 13.253 13.7602L12.8768 14.3282L12.8075 19.1262L12.7381 23.924L10.4138 23.962L8.08945 24V16.0143V8.02869L10.4138 8.06671L12.7381 8.10473L12.779 9.12147L12.8201 10.1382L13.0932 9.79115Z" fill="white"/>
<path d="M0.596128 24V16.0177V8.03535H2.95625H5.31636L5.28057 15.9797L5.24476 23.924L2.92044 23.962L0.596128 24Z" fill="white"/>
</svg>
