<svg width="30" height="24" viewBox="0 0 30 24" fill="none" xmlns="http://www.w3.org/2000/svg">
<path d="M15.2445 3.6239C16.0464 1.94935 17.2393 0.905894 19.079 0.269738C20.0702 -0.0730636 21.6992 -0.0914466 22.7749 0.227899C23.2254 0.361818 24.0681 0.795747 24.6473 1.19227L25.7005 1.91338L26.4322 1.63888C26.8346 1.48801 27.581 1.1563 28.091 0.901931C28.601 0.647564 29.0538 0.474818 29.0973 0.518243C29.2684 0.689247 28.2562 2.25 27.5395 2.92039C26.8035 3.60884 26.7939 3.6296 27.2102 3.62564C27.4462 3.62342 28.1205 3.45749 28.709 3.25701C29.2974 3.05652 29.7788 2.94067 29.7788 2.99963C29.7788 3.36716 28.4429 4.82236 27.5115 5.46945C27.0774 5.77104 27.0652 5.82049 27.005 7.52182C26.8384 12.2302 25.1054 16.1518 21.8228 19.2484C19.5977 21.3475 16.497 22.9821 13.3756 23.7016C11.8096 24.0627 7.56243 24.1062 6.08535 23.7764C4.5376 23.4308 2.71867 22.8182 1.42893 22.2084L0.221436 21.6374L1.80628 21.5255C4.70654 21.3207 7.3949 20.4399 8.4306 19.3547L8.87403 18.8902L8.09303 18.7977C6.42086 18.5997 4.57816 17.2331 3.73218 15.5635L3.32788 14.7657L4.38958 14.7839C5.94716 14.8107 6.09835 14.6108 4.92383 14.0778C3.13882 13.2675 1.80643 11.5151 1.43827 9.49368C1.35111 9.01427 1.30277 8.59856 1.33113 8.56972C1.35935 8.54103 1.54921 8.62614 1.75286 8.7591C2.19408 9.04691 3.59636 9.38163 3.88956 9.26911C4.02395 9.21744 3.79018 8.88336 3.22217 8.31535C2.67477 7.76779 2.15906 7.03955 1.84288 6.36742C1.40768 5.44235 1.33986 5.1295 1.35302 4.10522C1.36332 3.29124 1.47821 2.62925 1.71736 2.0053C1.9096 1.50417 2.08521 1.09402 2.10756 1.09402C2.13006 1.09402 2.72928 1.65949 3.43929 2.35064C6.43718 5.26897 10.2744 7.14146 13.5813 7.29947L14.7258 7.35414L14.775 5.92778C14.8148 4.77751 14.9056 4.33153 15.2445 3.6239Z" fill="white"/>
</svg>
