<svg width="34" height="24" viewBox="0 0 34 24" fill="none" xmlns="http://www.w3.org/2000/svg">
<path fill-rule="evenodd" clip-rule="evenodd" d="M10.1542 0.163496C5.26594 0.401149 3.21716 0.787075 2.00646 1.69902C1.19556 2.30948 0.522363 3.7934 0.317905 5.42068C-0.216678 9.67309 -0.0512519 17.6931 0.620853 20.1028C0.854311 20.9402 1.1206 21.392 1.7555 22.0269C3.24379 23.515 5.33015 23.8276 14.7378 23.9719C23.5986 24.1077 29.0413 23.7512 30.9434 22.91C33.1604 21.9297 33.6951 20.3378 33.9695 13.9018C34.0898 11.0779 33.8425 6.38589 33.4827 4.66595C33.0708 2.69724 32.1095 1.52083 30.4433 0.946855C28.0803 0.132669 18.4412 -0.239402 10.1542 0.163496ZM22.275 11.9737C22.2298 11.9004 20.3156 10.7654 18.0215 9.4513C15.7274 8.13737 13.7574 7.06218 13.6438 7.06218C13.4948 7.06218 13.4372 8.46275 13.4372 12.0779C13.4372 15.1497 13.5048 17.0936 13.6117 17.0936C13.9272 17.0936 22.3595 12.1104 22.275 11.9737Z" fill="white"/>
</svg>
